<svg width="24" height="25" viewBox="0 0 24 25" fill="none" xmlns="http://www.w3.org/2000/svg">
<path fill-rule="evenodd" clip-rule="evenodd" d="M16.5284 6.56525C16.5097 6.48455 16.4903 6.40367 16.47 6.32271C16.206 5.26663 15.7903 4.11908 15.1124 3.21525C14.4134 2.28327 13.3928 1.56525 11.9999 1.56525C10.607 1.56525 9.58642 2.28327 8.88743 3.21525C8.20956 4.11908 7.79381 5.26663 7.52979 6.32272C7.50955 6.40367 7.4901 6.48455 7.47139 6.56525H5.87104C4.29165 6.56525 2.98275 7.7898 2.87769 9.36569L2.14435 20.3656C2.02892 22.0972 3.40232 23.5652 5.13771 23.5652H18.8621C20.5975 23.5652 21.9709 22.0972 21.8555 20.3656L21.1221 9.36569C21.0171 7.7898 19.7082 6.56525 18.1288 6.56525H16.5284ZM7.47139 15.0652C8.04437 15.0652 8.998 11.1336 8.99995 10.5634C9.0001 10.5396 9.00038 10.5158 9.00078 10.4921C9.00166 10.4394 9.00345 10.3598 9.00712 10.2572C9.01445 10.0518 9.02924 9.75524 9.05899 9.39829C9.08009 9.14501 9.10852 8.86387 9.14668 8.56525H14.8532C14.8913 8.86387 14.9197 9.14501 14.9409 9.3983C14.9706 9.75524 14.9854 10.0518 14.9927 10.2572C14.9964 10.3598 14.9982 10.4394 14.9991 10.4921C14.9995 10.5166 14.9998 10.5411 14.9999 10.5656C14.9999 10.5656 15.47 15.0652 16.47 15.0652C17.47 15.0652 16.9999 10.5639 16.9999 10.5639C16.9998 10.5288 16.9994 10.4938 16.9988 10.4587C16.9977 10.3942 16.9956 10.3019 16.9914 10.1858C16.9832 9.95373 16.9667 9.62526 16.9339 9.2322C16.9169 9.02727 16.8952 8.80337 16.8678 8.56525H18.1288C18.6553 8.56525 19.0916 8.97343 19.1266 9.49873L19.8599 20.4987C19.8984 21.0759 19.4406 21.5652 18.8621 21.5652H5.13771C4.55925 21.5652 4.10145 21.0759 4.13992 20.4987L4.87326 9.49873C4.90828 8.97343 5.34458 8.56525 5.87104 8.56525H7.13202C7.10459 8.80337 7.08297 9.02727 7.06589 9.23221C7.03314 9.62526 7.01668 9.95373 7.00839 10.1858C7.00424 10.3019 7.00213 10.3942 7.00106 10.4587C7.00048 10.4931 7.00005 10.5275 6.99994 10.5618C6.99918 11.1324 6.89972 15.0652 7.47139 15.0652ZM9.53346 6.56525H14.4664C14.2352 5.71847 13.9209 4.95991 13.5124 4.41525C13.0864 3.84723 12.607 3.56525 11.9999 3.56525C11.3928 3.56525 10.9134 3.84723 10.4874 4.41525C10.0789 4.95991 9.76466 5.71847 9.53346 6.56525Z" fill="#0F0F0F"/>
</svg>
