<svg width="24" height="25" viewBox="0 0 24 25" fill="none" xmlns="http://www.w3.org/2000/svg">
<path fill-rule="evenodd" clip-rule="evenodd" d="M3.48883 6.56912C2.76317 7.81312 2.52434 9.53928 2.9702 11.3227C3.13065 11.9644 3.59709 12.7895 4.33633 13.7392C5.06122 14.6704 5.98646 15.6439 6.96642 16.5779C8.90951 18.43 11.0007 20.0637 12.0001 20.8192C12.9995 20.0637 15.0906 18.43 17.0337 16.5779C18.0137 15.6439 18.9389 14.6704 19.6638 13.7392C20.4031 12.7895 20.8695 11.9644 21.03 11.3227C21.4758 9.53928 21.237 7.81312 20.5113 6.56912C19.803 5.3549 18.6203 4.56525 17.0001 4.56525C15.5905 4.56525 14.597 5.60753 13.8945 7.01246C13.557 7.68753 13.3276 8.3727 13.1824 8.8954C13.1103 9.15484 13.0603 9.3696 13.0287 9.51697C12.9168 10.0392 12.3144 10.0652 12.0001 10.0652C11.6858 10.0652 11.0824 10.0343 10.9715 9.51697C10.9399 9.36961 10.8899 9.15484 10.8178 8.8954C10.6726 8.3727 10.4432 7.68754 10.1057 7.01247C9.40314 5.60753 8.40962 4.56525 7.00004 4.56525C5.37985 4.56525 4.19712 5.3549 3.48883 6.56912ZM12.0001 6.33536C12.0342 6.26309 12.0694 6.1906 12.1057 6.11804C12.9032 4.52297 15.4096 1.56525 18 1.56525C20.3798 1.56525 21.1972 3.7756 22.2389 5.56138C23.2632 7.31737 23.5244 9.59122 22.9702 11.8077C22.7077 12.8579 22.0355 13.9484 21.242 14.9677C20.4342 16.0054 19.4328 17.0543 18.4136 18.0257C16.3743 19.9694 14.1958 21.6674 13.1811 22.4335C12.4804 22.9626 11.5198 22.9626 10.8191 22.4335C9.80439 21.6674 7.62589 19.9694 5.58654 18.0257C4.56739 17.0543 3.56592 16.0054 2.75812 14.9677C1.96467 13.9484 1.29246 12.8579 1.02992 11.8077C0.475774 9.59122 0.736944 7.31738 1.76127 5.56138C2.80297 3.7756 4.12019 1.56525 6.5 1.56525C9.0904 1.56525 11.097 4.52297 11.8945 6.11803C11.9308 6.1906 11.966 6.26309 12.0001 6.33536Z" fill="#0F0F0F"/>
</svg>
