<svg width="120" height="57" viewBox="0 0 120 57" fill="none" xmlns="http://www.w3.org/2000/svg">
<path fill-rule="evenodd" clip-rule="evenodd" d="M4.8715 1.34144L2.59963 1.2014L1.66317 0.977953L1.47588 0.558612C1.47588 0.167583 1.70999 0 2.17886 0H25.6717C36.6802 0 44.4092 3.99599 48.9067 12.0155C51.4833 16.6543 52.7712 22.1593 52.7712 28.5305C52.7712 31.8562 52.3498 35.0693 51.4826 38.1708C50.4994 41.4406 49.1409 44.3193 47.384 46.8905C45.463 49.6001 43.1212 51.6968 40.4273 53.2334C37.5461 54.7983 34.3141 55.6087 30.6837 55.6087H0.726074C0.234114 55.6087 0 55.4128 0 55.0784C0 54.7149 0.351492 54.5197 1.00701 54.5197L6.74569 54.1012C7.63597 53.9604 8.26839 53.6528 8.57306 53.2342L9.15867 52.2555C9.36969 51.5859 9.48707 50.5804 9.51016 49.2106V4.89053C9.51016 3.15807 8.69044 2.09594 7.09782 1.6766L4.8715 1.34144ZM17.5201 2.09594L17.3559 3.21393V52.423C17.3559 52.9817 17.4495 53.3719 17.6368 53.5127L18.5739 53.6803H21.6655L28.8326 53.3727C30.753 53.1217 32.3924 52.7582 33.681 52.2547C34.9689 51.6969 36.187 50.8857 37.2408 49.9085C38.1779 48.9864 39.1381 47.6725 40.1926 45.9959C41.9487 43.258 43.2136 39.7647 43.9865 35.4895C44.4547 32.6964 44.6895 29.9852 44.6895 27.3865C44.6895 25.0954 44.4085 22.636 43.8229 19.9815C43.0032 16.1531 41.7615 12.7999 40.0046 9.94941C36.6084 4.41686 31.0339 1.67813 23.328 1.67813H18.5733C18.0351 1.62074 17.6836 1.76078 17.5201 2.09594ZM57.3849 55.1893C57.3381 54.8534 57.5722 54.7141 58.0879 54.7141L59.7273 54.6575C60.6176 54.5182 61.1564 54.1555 61.3667 53.5961L61.6714 51.5844V35.3487C61.6714 34.7342 61.4835 34.259 61.1326 33.9797L59.9146 33.8389L58.2752 34.3707L57.3849 34.3141C57.2675 33.9789 57.619 33.6713 58.4387 33.392C60.3828 32.7775 62.0935 31.9947 63.545 31.0167C64.4346 30.4023 65.067 30.0663 65.348 29.9271L66.0509 29.8436C66.2851 29.8987 66.4031 30.4581 66.4031 31.4636V51.918C66.4031 52.8952 66.5897 53.5946 66.9419 54.0132C67.3626 54.5167 68.3472 54.7677 69.8693 54.7677C70.408 54.7677 70.6883 54.9085 70.7364 55.2146C70.7364 55.4671 70.5722 55.5505 70.2907 55.5505H57.8063C57.5253 55.5528 57.3849 55.412 57.3849 55.1893ZM112.661 35.0693C111.514 36.495 110.741 38.1708 110.319 40.1826V52.0596C110.319 53.1209 110.624 53.8754 111.256 54.3506L112.686 54.6567L114.184 54.8526C114.536 54.9093 114.677 54.9934 114.677 55.2161L114.607 55.412L114.209 55.5528H101.677C101.303 55.5528 101.092 55.412 101.092 55.1893L101.443 54.8534L103.552 54.6575C104.371 54.4899 104.887 54.1555 105.168 53.652L105.52 52.3947V35.6287L105.285 34.399L104.888 34.1197C104.77 33.9804 104.583 33.897 104.301 33.8404C103.95 33.8136 103.528 33.897 103.084 34.1197L101.89 34.5115L101.21 34.3156C101.093 34.1197 101.14 33.9804 101.303 33.897L102.31 33.3935C104.605 32.5831 106.456 31.7452 107.745 30.8798L109.337 29.8452L110.04 29.9003L110.321 30.5997V36.7467C112.078 33.3377 113.483 31.2425 114.444 30.5431C115.029 30.1245 115.591 29.7886 116.013 29.6493L116.833 29.5659C117.348 29.5092 117.934 29.7051 118.589 30.2087C119.48 30.8231 119.948 31.7452 119.994 32.9183C120.041 33.897 119.806 34.6523 119.291 35.2377C118.823 35.7129 118.354 35.8537 117.933 35.7129C117.535 35.6295 117.23 35.4336 117.02 35.1543L116.364 34.1771C115.849 33.2818 115.357 33.0025 114.772 33.255C114.09 33.4762 113.388 34.0922 112.661 35.0693ZM63.7092 12.0997C62.842 12.0997 62.1396 12.4632 61.5547 13.1618C60.9222 13.8605 60.6176 14.7542 60.6638 15.7888C60.6176 16.7668 60.9216 17.6055 61.5547 18.3041C62.1396 19.0027 62.8426 19.3655 63.7092 19.3655C64.5282 19.3655 65.255 19.002 65.8399 18.3041C66.4249 17.6055 66.7533 16.7675 66.7533 15.7888C66.7533 14.7542 66.4249 13.8605 65.8399 13.1618C65.255 12.4632 64.5282 12.0997 63.7092 12.0997ZM76.123 34.3982C76.9658 33.0576 78.0209 31.9396 79.2851 31.0458C80.4102 30.263 81.5339 29.7602 82.7051 29.5077L87.0385 29.2016C88.6067 29.285 90.0601 29.6485 91.3718 30.3464C94.534 32.023 96.5242 35.0977 97.2734 39.5681C98.0463 44.0951 97.3914 47.9243 95.3293 51.0257C93.5731 53.652 91.2538 55.3286 88.3264 56.0548C85.2586 56.8652 82.4011 56.6134 79.8239 55.3569C76.4738 53.7354 74.4374 50.5222 73.7806 45.8276C73.195 41.3855 73.9678 37.6122 76.123 34.3982ZM89.8478 33.1418C88.4194 31.2425 86.6158 30.4038 84.4369 30.6265C82.3299 30.879 80.7135 32.2748 79.6591 34.9293C78.6995 37.3329 78.3474 40.2683 78.6995 43.7324C78.9561 47.1698 79.8707 49.9078 81.3453 52.0037C82.9149 54.2114 84.6954 55.1335 86.6857 54.7149C88.7703 54.2397 90.2936 52.8975 91.3006 50.663C92.2839 48.372 92.6347 45.4098 92.4006 41.6372C92.1203 37.8647 91.3013 35.0693 89.8478 33.1418Z" fill="#1B1B1B"/>
<path fill-rule="evenodd" clip-rule="evenodd" d="M57.2208 34.3715V34.6508L56.7051 34.259V34.3983L56.752 34.6508H56.6814C56.6814 34.5942 56.6814 34.4549 56.6814 34.3149V34.119H56.7051L57.1734 34.5391V34.119H57.267L57.2208 34.3715Z" fill="#1B1B1B"/>
<path fill-rule="evenodd" clip-rule="evenodd" d="M58.0872 34.1756H57.8062V34.3715H58.0404V34.3983H57.8062V34.5942H58.0872V34.6516H57.7363V34.119H58.0872V34.1756Z" fill="#1B1B1B"/>
<path fill-rule="evenodd" clip-rule="evenodd" d="M59.3758 34.119H59.3996L59.1654 34.6508H59.0949L58.9076 34.2307L58.6966 34.6508H58.6728C58.5555 34.3983 58.4625 34.2307 58.4387 34.119H58.5561L58.6966 34.5391L58.9076 34.119H58.9775L59.1417 34.5391L59.329 34.119H59.3758Z" fill="#1B1B1B"/>
<path fill-rule="evenodd" clip-rule="evenodd" d="M60.0313 34.3983L60.0781 34.6516H59.9614V34.4557L59.7273 34.119H59.844L60.0313 34.3983L60.2186 34.119H60.3129L60.0313 34.3983Z" fill="#1B1B1B"/>
<path fill-rule="evenodd" clip-rule="evenodd" d="M60.6874 34.2314C60.7335 34.1763 60.8516 34.1197 60.9683 34.1197C61.0863 34.1197 61.1562 34.1763 61.2499 34.2314C61.2723 34.2597 61.3198 34.3148 61.3198 34.399L61.2499 34.5949C61.1562 34.6515 61.0857 34.6515 60.9683 34.6515C60.8516 34.6515 60.7342 34.6515 60.6874 34.5949L60.5693 34.399C60.57 34.3148 60.6174 34.2597 60.6874 34.2314ZM61.1562 34.2314L60.9683 34.1763L60.7816 34.2314C60.7342 34.2597 60.688 34.3148 60.688 34.399C60.688 34.4556 60.7342 34.5107 60.7816 34.5398L60.9683 34.6515C61.0382 34.6515 61.1325 34.5949 61.1562 34.5398C61.2024 34.5115 61.2499 34.4564 61.2499 34.399C61.2499 34.3148 61.2024 34.2597 61.1562 34.2314Z" fill="#1B1B1B"/>
<path fill-rule="evenodd" clip-rule="evenodd" d="M61.8587 34.1756L61.835 34.3715H61.9049C62.0217 34.3715 62.0929 34.3149 62.0929 34.2598C62.0929 34.2314 62.0691 34.1764 61.9511 34.1764L61.8587 34.1756ZM61.9755 34.119C62.0935 34.119 62.1859 34.1756 62.1859 34.2598L62.0929 34.3715L61.9748 34.3983L62.2564 34.6508H62.1384L61.8575 34.3983H61.835L61.8587 34.6508H61.7407V34.119H61.9755Z" fill="#1B1B1B"/>
<path fill-rule="evenodd" clip-rule="evenodd" d="M63.1467 34.119L62.8427 34.3715L63.1467 34.6516H63.0306L62.7722 34.3983V34.3715L62.7247 34.3983L62.7722 34.6516H62.6548V34.119H62.7722L62.7247 34.3715H62.7722L63.0768 34.119H63.1467Z" fill="#1B1B1B"/>
</svg>
